<?xml version="1.0" standalone="no"?>
<svg xmlns="http://www.w3.org/2000/svg" viewBox="0 0 152.328 36" width="152.328" height="36"><g fill="#ead017" color="#ead017" transform="translate(0 4) scale(0.5833334)"><svg width="48.0" height="48.0" x="0.0" y="0.0" viewBox="0 0 48 48"><path fill="currentColor" fill-rule="nonzero" d="M24 .21L.21 24 24 47.79 47.79 24 24 .21zM5.82 24L24 5.82l7.69 7.69-2.8 2.8L24 11.43 11.43 24l4.88 4.89-2.8 2.8L5.82 24zm25.15 0L24 30.97 17.03 24 24 17.03 30.97 24zM16.31 34.49l2.8-2.8L24 36.57 36.57 24l-4.89-4.89 2.8-2.8 7.7 7.69L24 42.18l-7.69-7.69z"></path></svg></g><path fill="#000000" fill-rule="nonzero" d="M13.58 9.02L13.58 9.02L13.58 10.01Q13.58 14.09 11.54 15.65L11.54 15.65Q12.86 15.58 13.99 15.24L13.99 15.24L13.99 18.19L6.79 18.19Q5.30 18.19 3.94 17.70Q2.57 17.21 1.57 16.21Q0.58 15.22 0.29 13.82Q0 12.43 0 9.96L0 9.96L0 9.05Q0 6.58 0.29 5.18Q0.58 3.79 1.57 2.80Q2.57 1.80 3.94 1.31Q5.30 0.82 6.79 0.82Q8.28 0.82 9.64 1.31Q10.99 1.80 12.01 2.82Q13.03 3.84 13.31 5.16Q13.58 6.48 13.58 9.02ZM10.25 9.86L10.25 9.86L10.25 8.71Q10.25 5.71 9.43 4.78L9.43 4.78Q8.62 3.79 6.79 3.79Q4.97 3.79 4.10 4.80L4.10 4.80Q3.48 5.54 3.38 7.39L3.38 7.39Q3.34 7.99 3.34 9.05L3.34 9.05L3.34 9.94Q3.36 12.48 3.72 13.42L3.72 13.42Q4.39 15.22 6.79 15.22L6.79 15.22Q8.88 15.22 9.58 14.02L9.58 14.02Q10.03 13.15 10.13 12.34L10.13 12.34Q10.25 11.30 10.25 9.86ZM22.10 15.41L22.10 18.05L20.16 18.05Q18.38 18.05 17.46 16.99Q16.54 15.94 16.54 14.47L16.54 14.47L16.54 7.27L15.22 7.27L15.22 4.90L16.54 4.90L16.54 2.21L19.66 2.21L19.66 4.90L21.86 4.90L21.86 7.27L19.66 7.27L19.66 14.28Q19.66 15.41 20.74 15.41L20.74 15.41L22.10 15.41ZM34.97 11.93L34.97 11.93L26.98 11.93Q26.98 13.80 27.56 14.66Q28.15 15.53 29.93 15.53L29.93 15.53Q31.08 15.53 31.63 14.80Q32.18 14.06 32.18 13.39L32.18 13.39L34.99 13.39Q34.99 15.96 33.61 17.16Q32.23 18.36 29.96 18.36Q27.70 18.36 26.45 17.71L26.45 17.71Q23.88 16.39 23.88 10.70L23.88 10.70Q23.88 7.32 25.34 5.75Q26.81 4.18 29.81 4.18L29.81 4.18Q35.02 4.18 35.02 9.96L35.02 9.96Q35.02 10.58 34.97 11.93ZM27.05 9.79L27.05 9.79L32.18 9.79Q32.18 8.21 31.58 7.49Q30.98 6.77 29.75 6.77Q28.51 6.77 27.78 7.50Q27.05 8.23 27.05 9.79ZM44.86 13.03L44.86 13.03L47.69 13.01Q47.66 13.20 47.64 13.70Q47.62 14.21 47.60 14.39Q47.59 14.57 47.54 14.95Q47.50 15.34 47.44 15.52Q47.38 15.70 47.28 15.98L47.28 15.98Q46.85 17.23 44.93 17.95L44.93 17.95Q43.70 18.38 42.37 18.38Q41.04 18.38 39.96 17.95Q38.88 17.52 38.26 16.85L38.26 16.85Q36.84 15.36 36.84 11.27Q36.84 7.18 38.26 5.69L38.26 5.69Q38.88 5.02 39.96 4.58Q41.04 4.15 42.36 4.15L42.36 4.15Q44.95 4.15 46.30 5.45Q47.64 6.74 47.64 9.05L47.64 9.05L44.81 9.05Q44.81 7.99 44.28 7.48Q43.75 6.96 42.32 6.96Q40.90 6.96 40.43 7.85Q39.96 8.74 39.96 10.51L39.96 10.51L39.96 11.76Q39.96 14.62 41.06 15.26L41.06 15.26Q41.57 15.58 42.38 15.58Q43.20 15.58 43.72 15.42Q44.23 15.26 44.46 14.88Q44.69 14.50 44.76 14.12Q44.83 13.75 44.86 13.03ZM60.89 8.76L60.89 18.05L57.77 18.05L57.77 9.46Q57.77 7.25 56.04 7.25L56.04 7.25L53.06 8.42L53.06 18.05L49.94 18.05L49.94 0L53.06 0L53.06 5.98L57.02 4.20Q59.14 4.20 60.01 5.40Q60.89 6.60 60.89 8.76L60.89 8.76ZM68.71 10.01L68.71 10.01L68.71 7.90Q68.71 4.56 70.46 2.69Q72.22 0.82 75.31 0.82Q78.41 0.82 80.28 2.69L80.28 2.69Q81.60 4.01 81.60 6.65L81.60 6.65L78.48 6.65Q78.48 3.79 75.43 3.79L75.43 3.79Q74.52 3.79 73.88 4.14Q73.25 4.49 72.94 4.94Q72.62 5.40 72.46 6.29Q72.29 7.18 72.26 7.78Q72.24 8.38 72.24 9.38Q72.24 10.39 72.25 10.74Q72.26 11.09 72.32 11.87Q72.38 12.65 72.52 12.98Q72.65 13.32 72.90 13.85Q73.15 14.38 73.54 14.59L73.54 14.59Q74.52 15.22 75.77 15.22L75.77 15.22Q77.86 15.22 78.72 13.44L78.72 13.44L78.72 12.29L76.66 12.29L76.66 9.50L81.58 9.50L81.58 14.66Q80.83 16.42 79.22 17.30Q77.62 18.19 75.58 18.19L75.58 18.19Q71.95 18.19 70.33 16.16Q68.71 14.14 68.71 10.01ZM92.54 2.40L98.02 18.05L94.54 18.05L93.58 15.10L87.84 15.10L86.90 18.05L83.42 18.05L88.90 2.40Q89.26 1.58 89.70 1.27Q90.14 0.96 90.79 0.96Q91.44 0.96 91.84 1.25Q92.23 1.54 92.54 2.40L92.54 2.40ZM88.68 12.29L92.81 12.29L90.79 5.52L88.68 12.29ZM112.99 18.05L112.99 7.85L109.92 14.33Q109.25 15.62 108.25 15.62Q107.26 15.62 106.58 14.26L106.58 14.26L103.46 7.85L103.46 18.05L100.13 18.05L100.13 0.96L103.42 0.96L108.24 10.82L113.04 0.96L116.33 0.96L116.33 18.05L112.99 18.05Z" transform="translate(36, 8.808)"></path></svg>